<svg width=0 height=0 class=svg-sprite display=none>
  <symbol id=colby-logo viewBox="0 0 900.000000 477.000000">
    <title>Colby College Logo</title>
    <g transform="translate(0.000000,477.000000) scale(0.100000,-0.100000)"
    fill="#fff" stroke="none">
    <path d="M4715 4489 c-71 -4 -159 -12 -195 -18 -36 -6 -105 -13 -153 -17 -80
    -6 -90 -9 -99 -30 -20 -43 -7 -51 99 -56 143 -8 191 -35 226 -126 16 -39 17
    -156 17 -1320 0 -1169 -1 -1283 -17 -1350 -27 -116 -85 -160 -213 -161 -37 -1
    -71 -6 -78 -13 -18 -18 -14 -46 7 -58 13 -6 179 -10 470 -10 441 0 450 0 456
    20 3 11 3 29 0 40 -5 17 -15 20 -64 20 -109 0 -181 36 -222 110 -12 21 -14
    272 -17 1495 -2 1149 -5 1471 -15 1477 -13 9 -16 8 -202 -3z"></path>
    <path d="M5615 4489 c-66 -4 -149 -12 -185 -18 -36 -6 -101 -14 -145 -18 l-80
    -8 0 -35 0 -35 65 -6 c145 -15 200 -49 219 -139 8 -35 11 -482 11 -1449 0
    -1168 2 -1400 14 -1410 34 -28 288 -56 511 -56 203 0 275 8 425 47 85 22 87
    22 194 73 244 114 423 318 494 563 38 130 45 177 44 298 0 165 -27 282 -98
    429 -161 331 -518 506 -854 419 -123 -32 -255 -101 -333 -175 -22 -22 -46 -39
    -54 -39 -11 0 -13 134 -13 773 0 588 -3 776 -12 785 -13 13 -22 13 -203 1z
    m797 -1486 c155 -56 312 -230 372 -413 43 -132 50 -184 50 -350 -1 -165 -7
    -214 -50 -358 -59 -197 -205 -363 -384 -435 -94 -38 -156 -49 -275 -50 -115 0
    -124 1 -173 28 -37 20 -62 43 -85 79 l-32 51 -3 600 c-2 330 0 610 3 621 7 30
    118 140 180 179 54 34 121 61 170 69 53 8 176 -3 227 -21z"></path>
    <path d="M1230 4285 c-166 -22 -272 -55 -425 -129 -218 -106 -390 -260 -532
    -475 -57 -86 -163 -297 -163 -325 0 -8 -4 -17 -9 -21 -5 -3 -12 -20 -16 -38
    -4 -17 -12 -50 -20 -72 -18 -55 -42 -174 -55 -270 -13 -105 -13 -415 1 -507
    13 -83 45 -228 61 -273 79 -223 180 -390 322 -530 39 -38 82 -79 96 -90 46
    -37 164 -113 225 -144 98 -49 116 -56 290 -111 117 -37 403 -50 551 -25 55 9
    113 20 129 25 250 74 389 153 546 309 88 89 195 232 218 295 16 41 48 34 60
    -12 31 -112 131 -271 233 -368 67 -64 191 -146 263 -175 17 -6 39 -15 50 -20
    22 -9 80 -24 160 -41 82 -17 357 -4 439 21 158 47 285 123 397 238 123 127
    190 249 241 438 21 80 17 413 -6 490 -75 251 -192 417 -381 540 -219 143 -469
    184 -755 125 -30 -6 -59 -16 -64 -21 -6 -5 -17 -9 -26 -9 -32 0 -167 -73 -245
    -132 -141 -108 -248 -256 -303 -423 -40 -123 -52 -190 -59 -325 -7 -133 -25
    -181 -125 -330 -140 -210 -327 -355 -540 -419 -265 -80 -515 -62 -744 55 -45
    22 -88 46 -95 52 -158 128 -231 209 -310 342 -47 78 -119 238 -119 263 0 7 -3
    17 -7 21 -18 18 -60 201 -83 366 -46 323 -10 699 93 960 32 84 115 240 136
    260 4 3 24 28 45 55 126 160 305 270 521 319 101 23 325 22 436 -3 205 -45
    343 -129 457 -278 65 -85 137 -227 172 -338 45 -141 44 -140 81 -140 l34 0 0
    425 0 425 -28 3 c-20 3 -35 -5 -60 -32 -19 -19 -46 -40 -61 -46 -50 -19 -142
    -11 -291 24 -354 84 -526 100 -735 71z m2246 -1221 c109 -23 178 -58 250 -129
    71 -69 121 -145 154 -230 12 -33 26 -69 30 -80 18 -44 40 -167 51 -279 20
    -201 -10 -433 -77 -603 -56 -142 -167 -273 -274 -325 -74 -35 -134 -48 -224
    -48 -148 0 -266 50 -362 151 -42 46 -124 167 -124 186 0 3 -6 19 -14 36 -54
    120 -79 271 -78 477 0 361 94 616 277 752 73 54 119 74 210 92 92 19 91 19
    181 0z"></path>
    <path d="M7061 3096 c-8 -9 -8 -21 -2 -38 8 -22 18 -26 70 -31 136 -15 196
    -77 291 -302 58 -135 62 -145 86 -205 9 -25 30 -73 46 -108 15 -35 28 -66 28
    -69 0 -3 6 -19 14 -36 7 -18 21 -52 31 -77 17 -41 43 -103 65 -155 4 -11 25
    -60 45 -110 20 -49 43 -106 51 -125 17 -39 24 -55 50 -120 15 -40 37 -93 64
    -155 4 -11 18 -45 30 -75 11 -30 25 -64 30 -75 41 -91 50 -117 50 -139 0 -23
    -58 -211 -80 -261 -5 -11 -39 -110 -76 -220 -70 -213 -108 -293 -172 -365 -74
    -85 -180 -115 -302 -87 -40 10 -69 12 -74 6 -6 -5 -13 -78 -16 -161 -7 -193
    -10 -188 112 -188 55 0 108 6 138 16 102 33 188 141 261 324 12 30 28 69 35
    87 8 17 14 35 14 40 0 5 25 86 55 179 73 223 131 402 195 604 29 91 56 174 60
    185 4 11 21 63 38 115 16 52 47 149 67 215 21 66 55 172 75 235 21 63 61 189
    90 280 29 91 59 179 66 197 8 17 14 36 14 43 0 24 64 197 97 265 73 148 160
    227 261 241 44 5 53 10 58 30 14 55 19 54 -296 54 -315 0 -310 1 -296 -54 4
    -18 15 -25 43 -31 65 -12 100 -40 118 -96 16 -46 16 -55 0 -127 -9 -42 -22
    -95 -30 -117 -7 -22 -28 -87 -45 -145 -18 -58 -43 -136 -55 -175 -13 -38 -33
    -104 -45 -145 -12 -41 -26 -84 -30 -95 -5 -11 -18 -54 -31 -95 -51 -171 -85
    -265 -94 -264 -11 1 -33 43 -65 124 -11 30 -25 64 -29 75 -5 11 -17 40 -27 65
    -9 25 -25 63 -34 85 -9 22 -23 56 -30 75 -7 19 -22 55 -32 80 -11 25 -23 54
    -28 65 -4 11 -18 45 -30 75 -11 30 -25 64 -30 75 -30 73 -80 198 -95 240 -10
    28 -22 55 -27 62 -5 6 -9 39 -10 72 -1 83 31 131 110 166 29 13 33 19 30 47
    l-3 33 -396 3 c-329 2 -398 0 -408 -12z"></path>
    </g>
  </symbol>

  <symbol id=twitter-icon viewBox="0 0 1792 1792">
    <title>Colby College on Twitter</title>
    <path d="M1684 408q-67 98-162 167 1 14 1 42 0 130-38 259.5t-115.5 248.5-184.5 210.5-258 146-323 54.5q-271 0-496-145 35 4 78 4 225 0 401-138-105-2-188-64.5t-114-159.5q33 5 61 5 43 0 85-11-112-23-185.5-111.5t-73.5-205.5v-4q68 38 146 41-66-44-105-115t-39-154q0-88 44-163 121 149 294.5 238.5t371.5 99.5q-8-38-8-74 0-134 94.5-228.5t228.5-94.5q140 0 236 102 109-21 205-78-37 115-142 178 93-10 186-50z" fill="currentColor"/>
  </symbol>

  <symbol id=facebook-icon viewBox="0 0 1792 1792">
    <title>Colby College on Facebook</title>
    <path d="M1376 128q119 0 203.5 84.5t84.5 203.5v960q0 119-84.5 203.5t-203.5 84.5h-188v-595h199l30-232h-229v-148q0-56 23.5-84t91.5-28l122-1v-207q-63-9-178-9-136 0-217.5 80t-81.5 226v171h-200v232h200v595h-532q-119 0-203.5-84.5t-84.5-203.5v-960q0-119 84.5-203.5t203.5-84.5h960z" fill="currentColor"/>
  </symbol>

  <symbol id=youtube-icon viewBox="0 0 1792 1792">
    <title>Colby College on YouTube</title>
    <path d="M1099 1244v211q0 67-39 67-23 0-45-22v-301q22-22 45-22 39 0 39 67zm338 1v46h-90v-46q0-68 45-68t45 68zm-966-218h107v-94h-312v94h105v569h100v-569zm288 569h89v-494h-89v378q-30 42-57 42-18 0-21-21-1-3-1-35v-364h-89v391q0 49 8 73 12 37 58 37 48 0 102-61v54zm429-148v-197q0-73-9-99-17-56-71-56-50 0-93 54v-217h-89v663h89v-48q45 55 93 55 54 0 71-55 9-27 9-100zm338-10v-13h-91q0 51-2 61-7 36-40 36-46 0-46-69v-87h179v-103q0-79-27-116-39-51-106-51-68 0-107 51-28 37-28 116v173q0 79 29 116 39 51 108 51 72 0 108-53 18-27 21-54 2-9 2-58zm-608-913v-210q0-69-43-69t-43 69v210q0 70 43 70t43-70zm719 751q0 234-26 350-14 59-58 99t-102 46q-184 21-555 21t-555-21q-58-6-102.5-46t-57.5-99q-26-112-26-350 0-234 26-350 14-59 58-99t103-47q183-20 554-20t555 20q58 7 102.5 47t57.5 99q26 112 26 350zm-998-1276h102l-121 399v271h-100v-271q-14-74-61-212-37-103-65-187h106l71 263zm370 333v175q0 81-28 118-37 51-106 51-67 0-105-51-28-38-28-118v-175q0-80 28-117 38-51 105-51 69 0 106 51 28 37 28 117zm335-162v499h-91v-55q-53 62-103 62-46 0-59-37-8-24-8-75v-394h91v367q0 33 1 35 3 22 21 22 27 0 57-43v-381h91z" fill="currentColor"/>
  </symbol>

  <symbol id=vimeo-icon viewBox="0 0 1792 1792">
    <title>Colby College on Vimeo</title>
    <path d="M1709 518q-10 236-332 651-333 431-562 431-142 0-240-263-44-160-132-482-72-262-157-262-18 0-127 76l-77-98q24-21 108-96.5t130-115.5q156-138 241-146 95-9 153 55.5t81 203.5q44 287 66 373 55 249 120 249 51 0 154-161 101-161 109-246 13-139-109-139-57 0-121 26 120-393 459-382 251 8 236 326z" fill="currentColor"/>
  </symbol>

  <symbol id=rss-icon viewBox="0 0 1792 1792">
    <title>Colby College RSS Feed</title>
    <path d="M576 1344q0 80-56 136t-136 56-136-56-56-136 56-136 136-56 136 56 56 136zm512 123q2 28-17 48-18 21-47 21h-135q-25 0-43-16.5t-20-41.5q-22-229-184.5-391.5t-391.5-184.5q-25-2-41.5-20t-16.5-43v-135q0-29 21-47 17-17 43-17h5q160 13 306 80.5t259 181.5q114 113 181.5 259t80.5 306zm512 2q2 27-18 47-18 20-46 20h-143q-26 0-44.5-17.5t-19.5-42.5q-12-215-101-408.5t-231.5-336-336-231.5-408.5-102q-25-1-42.5-19.5t-17.5-43.5v-143q0-28 20-46 18-18 44-18h3q262 13 501.5 120t425.5 294q187 186 294 425.5t120 501.5z" fill="currentColor"/>
  </symbol>

  <symbol id=search-icon viewBox="0 0 1792 1792">
    <title>Search</title>
    <path d="M1216 832q0-185-131.5-316.5t-316.5-131.5-316.5 131.5-131.5 316.5 131.5 316.5 316.5 131.5 316.5-131.5 131.5-316.5zm512 832q0 52-38 90t-90 38q-54 0-90-38l-343-342q-179 124-399 124-143 0-273.5-55.5t-225-150-150-225-55.5-273.5 55.5-273.5 150-225 225-150 273.5-55.5 273.5 55.5 225 150 150 225 55.5 273.5q0 220-124 399l343 343q37 37 37 90z" fill="currentColor"/>
  </symbol>

  <symbol id=chevron-left viewBox="0 0 1792 1792">
    <title>Previous</title>
    <path d="M1427 301l-531 531 531 531q19 19 19 45t-19 45l-166 166q-19 19-45 19t-45-19l-742-742q-19-19-19-45t19-45l742-742q19-19 45-19t45 19l166 166q19 19 19 45t-19 45z" fill="currentColor"/>
  </symbol>

  <symbol id=chevron-right viewBox="0 0 1792 1792">
    <title>Next</title>
    <path d="M1363 877l-742 742q-19 19-45 19t-45-19l-166-166q-19-19-19-45t19-45l531-531-531-531q-19-19-19-45t19-45l166-166q19-19 45-19t45 19l742 742q19 19 19 45t-19 45z" fill="currentColor"/>
  </symbol>
</svg>
